<?xml version="1.0" encoding="utf-8"?>
<!-- Generator: Adobe Illustrator 18.1.1, SVG Export Plug-In . SVG Version: 6.00 Build 0)  -->
<!DOCTYPE svg PUBLIC "-//W3C//DTD SVG 1.1//EN" "http://www.w3.org/Graphics/SVG/1.1/DTD/svg11.dtd">
<svg version="1.1" id="Layer_1" xmlns="http://www.w3.org/2000/svg" xmlns:xlink="http://www.w3.org/1999/xlink" x="0px" y="0px"
	 viewBox="0 0 12 12" height="12" width="12" style="enable-background:new 0 0 12 12;" xml:space="preserve">
<style type="text/css">
	.st0{clip-path:url(#SVGID_2_);fill:#0D0708;}
	.st1{fill:#0D0708;}
	.st2{clip-path:url(#SVGID_4_);fill:#0D0708;}
	.st3{clip-path:url(#SVGID_6_);fill:#0D0708;}
	.st4{fill:#8DC63F;}
	.st5{fill:#005826;}
	.st6{fill:#64BC46;}
	.st7{fill:#00834B;}
	.st8{clip-path:url(#SVGID_8_);}
	.st9{clip-path:url(#SVGID_10_);}
	.st10{fill:#FFFFFF;}
	.st11{clip-path:url(#SVGID_12_);}
	.st12{clip-path:url(#SVGID_14_);}
	.st13{fill:none;stroke:#000000;stroke-width:2;}
	.st14{clip-path:url(#SVGID_16_);}
</style>
<g>
	<defs>
		<rect id="SVGID_15_" x="0.5" y="0.7" width="10.9" height="10.9"/>
	</defs>
	<clipPath id="SVGID_2_">
		<use xlink:href="#SVGID_15_"  style="overflow:visible;"/>
	</clipPath>
	<path style="clip-path:url(#SVGID_2_);" d="M11.5,6.3c0-0.1,0-0.2-0.1-0.3L6.2,0.8c-0.1-0.1-0.2-0.1-0.3,0L0.6,6
		C0.5,6.1,0.5,6.2,0.5,6.3c0,0.1,0.1,0.1,0.2,0.1h1.1v5c0,0.1,0.1,0.2,0.2,0.2h2.3c0.1,0,0.2-0.1,0.2-0.2V7.5h2.7v3.9
		c0,0.1,0.1,0.2,0.2,0.2h2.3c0.1,0,0.2-0.1,0.2-0.2v-5h1.1C11.3,6.4,11.4,6.3,11.5,6.3"/>
</g>
</svg>
