<?xml version="1.0" encoding="utf-8"?>
<!-- Generator: Adobe Illustrator 18.1.1, SVG Export Plug-In . SVG Version: 6.00 Build 0)  -->
<!DOCTYPE svg PUBLIC "-//W3C//DTD SVG 1.1//EN" "http://www.w3.org/Graphics/SVG/1.1/DTD/svg11.dtd">
<svg version="1.1" id="Layer_1" xmlns="http://www.w3.org/2000/svg" xmlns:xlink="http://www.w3.org/1999/xlink" x="0px" y="0px"
	 viewBox="0 0 12 12" height="12" width="12" style="enable-background:new 0 0 12 12;" xml:space="preserve">
<style type="text/css">
	.st0{clip-path:url(#SVGID_2_);fill:#0D0708;}
	.st1{fill:#0D0708;}
	.st2{clip-path:url(#SVGID_4_);fill:#0D0708;}
	.st3{clip-path:url(#SVGID_6_);fill:#0D0708;}
	.st4{fill:#8DC63F;}
	.st5{fill:#005826;}
	.st6{fill:#64BC46;}
	.st7{fill:#00834B;}
	.st8{clip-path:url(#SVGID_8_);}
	.st9{clip-path:url(#SVGID_10_);}
	.st10{fill:#FFFFFF;}
	.st11{clip-path:url(#SVGID_12_);}
	.st12{clip-path:url(#SVGID_14_);}
	.st13{fill:none;stroke:#000000;stroke-width:2;}
	.st14{clip-path:url(#SVGID_16_);}
</style>
<path d="M7.4,7.5c-1.6,0-3-1.3-3-3s1.3-3,3-3s3,1.3,3,3S9,7.5,7.4,7.5 M7.4,0C4.9,0,3,2,3,4.5c0,0.9,0.2,1.7,0.7,2.4l-3.4,3.4
	c-0.4,0.4-0.4,1,0,1.4C0.5,11.9,0.7,12,1,12c0.2,0,0.5-0.1,0.7-0.3L5,8.3C5.7,8.7,6.5,9,7.4,9c2.5,0,4.4-2,4.4-4.5
	C11.8,2,9.9,0,7.4,0"/>
</svg>
