<svg id="Layer_1" xmlns="http://www.w3.org/2000/svg" xmlns:xlink="http://www.w3.org/1999/xlink" viewBox="0 0 160 25"><style>.st0{fill:#61bf1a}.st1{fill:#00824a}.st2{clip-path:url(#SVGID_2_)}.st3{clip-path:url(#SVGID_4_)}.st4{clip-path:url(#SVGID_6_)}.st5{clip-path:url(#SVGID_8_)}.st6{clip-path:url(#SVGID_10_)}.st7{clip-path:url(#SVGID_12_)}.st8{clip-path:url(#SVGID_14_)}.st9{clip-path:url(#SVGID_16_)}.st10{clip-path:url(#SVGID_18_)}</style><path class="st0" d="M13.9.9l-2.8 9.2H.9l8.4 5 7.3-5.1z"/><path class="st1" d="M16.8 10.1l-10.9 14 8-5.8 8 5.8-3.5-8.9 8.4-5.1z"/><defs><path id="SVGID_1_" d="M.9.9H159v23.2H.9z"/></defs><clipPath id="SVGID_2_"><use xlink:href="#SVGID_1_" overflow="visible"/></clipPath><path class="st2" d="M63.5 20c-.6.8-1.6 1.6-3 1.6-1.1 0-1.7-.4-1.7-1.4 0-1.2 1.2-2 3.2-2.3.4-.1.9-.1 1.4-.2l.1 2.3zm4.1 1.5v-5.9c0-2.8-1.3-4.6-5.9-4.6-4 0-6.2 1.3-6.9 3.9l3.9.3c.3-1.1 1-1.6 2.6-1.6 1.5 0 2.1.6 2.2 1.6v.6c-.6 0-1.1.1-1.6.1-4.7.4-7.4 1.9-7.4 4.7 0 2.2 1.7 3.5 4.2 3.5 2.4 0 3.8-.7 5-1.8 0 .7.1 1.4.2 1.6h4c-.2-.4-.3-1.7-.3-2.4"/><defs><path id="SVGID_3_" d="M.9.9H159v23.2H.9z"/></defs><clipPath id="SVGID_4_"><use xlink:href="#SVGID_3_" overflow="visible"/></clipPath><path class="st3" d="M45 11.1h1.6l.3-3.9h3.8v3.9h2.8v2.7h-2.8v5.5c0 1 .4 1.6 1.4 1.7.5.1 1 .1 1.6 0v3c-.7.1-1.6.2-2.5.2-3.1 0-4.7-1.4-4.7-4.1v-6.2H45v-2.8z"/><g><defs><path id="SVGID_5_" d="M.9.9H159v23.2H.9z"/></defs><clipPath id="SVGID_6_"><use xlink:href="#SVGID_5_" overflow="visible"/></clipPath><path class="st4" d="M69.4 11.1h4.1v2.8c.6-1.5 2.2-2.9 4.2-2.9.4 0 .8 0 1 .1v3.2c-.3-.1-.9-.1-1.2-.1-1.6 0-3 .8-3.7 2.1v7.5h-4.3l-.1-12.7z"/></g><g><defs><path id="SVGID_7_" d="M.9.9H159v23.2H.9z"/></defs><clipPath id="SVGID_8_"><use xlink:href="#SVGID_7_" overflow="visible"/></clipPath><path class="st5" d="M29.3 19.5l3.6-1.3c.7 1.7 1.9 2.7 4.4 2.7 1.8 0 3-.7 3-1.9 0-1.6-2-2-4.2-2.5-2.8-.7-6.1-1.6-6.1-5.5 0-3 2.7-5.1 7.1-5.1 3.9 0 6.1 1.6 7.2 4.3l-3.8 1.1c-.5-1.5-1.7-2.1-3.4-2.1-1.5 0-2.5.6-2.5 1.6 0 1.6 1.8 1.8 4.3 2.4 3 .7 5.9 1.8 5.9 5.4 0 3.1-2.4 5.4-7.3 5.4-5 .1-7.2-1.9-8.2-4.5"/></g><path d="M75.7 6.2v3.3h4.7v14.4h4.3V9.5h4.7V6.2z"/><g><defs><path id="SVGID_9_" d="M.9.9H159v23.2H.9z"/></defs><clipPath id="SVGID_10_"><use xlink:href="#SVGID_9_" overflow="visible"/></clipPath><path class="st6" d="M86.5 11.1h4v2.8c.6-1.5 2.2-2.9 4.2-2.9.4 0 .8 0 1 .1v3.2c-.3-.1-.9-.1-1.2-.1-1.6 0-3 .8-3.7 2.1v7.5h-4.3V11.1z"/><defs><path id="SVGID_11_" d="M.9.9H159v23.2H.9z"/></defs><clipPath id="SVGID_12_"><use xlink:href="#SVGID_11_" overflow="visible"/></clipPath><path class="st7" d="M110 22c-1.4 0-2.3-1.2-2.3-3v-3.4c.3-1.2 1.1-1.9 2.3-1.9 1.6 0 2.2 1.3 2.2 4 0 2.8-.6 4.3-2.2 4.3m1.8-11.1c-2.1 0-3.3 1.1-4.1 2.2V6.2h-4.2v17.7h2.6l.6-1.9c1 1.3 2.3 2.1 4.5 2.1 3.2 0 5.4-2.2 5.4-6.6 0-4.3-1.7-6.6-4.8-6.6"/><g><defs><path id="SVGID_13_" d="M.9.9H159v23.2H.9z"/></defs><clipPath id="SVGID_14_"><use xlink:href="#SVGID_13_" overflow="visible"/></clipPath><path class="st8" d="M117.8 20v-8.9h4.2v8.7c0 1.2.5 1.7 1.7 1.7 1 0 1.7-.6 2.2-1.5v-8.9h4.2v12.8H126V22c-.9 1.4-2.4 2-4.3 2-2.2.1-3.9-1.1-3.9-4"/></g><g><defs><path id="SVGID_15_" d="M.9.9H159v23.2H.9z"/></defs><clipPath id="SVGID_16_"><use xlink:href="#SVGID_15_" overflow="visible"/></clipPath><path class="st9" d="M131.9 11.1h4.1v2.1c.8-1.1 2.1-2.3 4.4-2.3 2.8 0 3.9 1.6 3.9 4v9H140V15c0-.8-.4-1.4-1.5-1.4s-1.9.7-2.4 1.5v8.8h-4.2V11.1z"/></g><g><defs><path id="SVGID_17_" d="M.9.9H159v23.2H.9z"/></defs><clipPath id="SVGID_18_"><use xlink:href="#SVGID_17_" overflow="visible"/></clipPath><path class="st10" d="M154.8 16.2c-.1-1.7-.9-2.8-2.5-2.8-1.4 0-2.4 1-2.6 2.8h5.1zm-9.5 1.5c0-4.1 3.2-6.8 7-6.8 4.2 0 6.7 2.6 6.8 6.6v.8h-9.3c.1 2.3 1.3 3.3 3 3.3 1.4 0 2.2-.6 2.7-1.9l3.5.4c-.9 2.4-3.1 4-6.6 4-4.2 0-7.1-2.5-7.1-6.4"/></g></g><path d="M97.5 6.2h4.2v3.3h-4.2zM97.5 11.1h4.3v12.8h-4.3z"/></svg>